<mxfile host="Electron" modified="2024-04-13T09:48:57.571Z" agent="Mozilla/5.0 (Windows NT 10.0; Win64; x64) AppleWebKit/537.36 (KHTML, like Gecko) draw.io/24.1.0 Chrome/120.0.6099.109 Electron/28.1.0 Safari/537.36" etag="1tiJSR4J56FWXmSQHmG_" version="24.1.0" type="device">
  <diagram name="Page-1" id="b1UWbTRgkgBG5SgzcY-B">
    <mxGraphModel dx="1219" dy="713" grid="1" gridSize="10" guides="1" tooltips="1" connect="1" arrows="1" fold="1" page="1" pageScale="1" pageWidth="850" pageHeight="1100" math="0" shadow="0">
      <root>
        <mxCell id="0" />
        <mxCell id="1" parent="0" />
        <mxCell id="MBGv9z7zSBHKtkXiV5-l-3" value="" style="edgeStyle=orthogonalEdgeStyle;rounded=0;orthogonalLoop=1;jettySize=auto;html=1;" parent="1" source="MBGv9z7zSBHKtkXiV5-l-1" target="MBGv9z7zSBHKtkXiV5-l-2" edge="1">
          <mxGeometry relative="1" as="geometry" />
        </mxCell>
        <mxCell id="MBGv9z7zSBHKtkXiV5-l-1" value="START" style="rounded=1;whiteSpace=wrap;html=1;" parent="1" vertex="1">
          <mxGeometry x="365" y="10" width="120" height="60" as="geometry" />
        </mxCell>
        <mxCell id="MBGv9z7zSBHKtkXiV5-l-5" value="" style="edgeStyle=orthogonalEdgeStyle;rounded=0;orthogonalLoop=1;jettySize=auto;html=1;" parent="1" source="MBGv9z7zSBHKtkXiV5-l-2" target="MBGv9z7zSBHKtkXiV5-l-4" edge="1">
          <mxGeometry relative="1" as="geometry" />
        </mxCell>
        <mxCell id="MBGv9z7zSBHKtkXiV5-l-2" value="number, cem = 0, reqem" style="shape=parallelogram;perimeter=parallelogramPerimeter;whiteSpace=wrap;html=1;fixedSize=1;" parent="1" vertex="1">
          <mxGeometry x="338" y="130" width="175" height="60" as="geometry" />
        </mxCell>
        <mxCell id="MBGv9z7zSBHKtkXiV5-l-7" value="" style="edgeStyle=orthogonalEdgeStyle;rounded=0;orthogonalLoop=1;jettySize=auto;html=1;" parent="1" source="MBGv9z7zSBHKtkXiV5-l-4" target="MBGv9z7zSBHKtkXiV5-l-6" edge="1">
          <mxGeometry relative="1" as="geometry" />
        </mxCell>
        <mxCell id="MBGv9z7zSBHKtkXiV5-l-8" value="TRUE" style="edgeLabel;html=1;align=center;verticalAlign=middle;resizable=0;points=[];" parent="MBGv9z7zSBHKtkXiV5-l-7" vertex="1" connectable="0">
          <mxGeometry x="-0.1714" y="-1" relative="1" as="geometry">
            <mxPoint as="offset" />
          </mxGeometry>
        </mxCell>
        <mxCell id="MBGv9z7zSBHKtkXiV5-l-13" style="edgeStyle=orthogonalEdgeStyle;rounded=0;orthogonalLoop=1;jettySize=auto;html=1;exitX=0;exitY=0.5;exitDx=0;exitDy=0;entryX=1;entryY=0.5;entryDx=0;entryDy=0;" parent="1" source="MBGv9z7zSBHKtkXiV5-l-4" target="MBGv9z7zSBHKtkXiV5-l-12" edge="1">
          <mxGeometry relative="1" as="geometry" />
        </mxCell>
        <mxCell id="SJpC3aeIMvSN7fUl0yTT-1" value="FALSE" style="edgeLabel;html=1;align=center;verticalAlign=middle;resizable=0;points=[];" vertex="1" connectable="0" parent="MBGv9z7zSBHKtkXiV5-l-13">
          <mxGeometry x="-0.1595" y="-4" relative="1" as="geometry">
            <mxPoint as="offset" />
          </mxGeometry>
        </mxCell>
        <mxCell id="MBGv9z7zSBHKtkXiV5-l-4" value="number &amp;gt; 0" style="shape=hexagon;perimeter=hexagonPerimeter2;whiteSpace=wrap;html=1;fixedSize=1;" parent="1" vertex="1">
          <mxGeometry x="348" y="260" width="155" height="80" as="geometry" />
        </mxCell>
        <mxCell id="MBGv9z7zSBHKtkXiV5-l-10" value="" style="edgeStyle=orthogonalEdgeStyle;rounded=0;orthogonalLoop=1;jettySize=auto;html=1;" parent="1" source="MBGv9z7zSBHKtkXiV5-l-6" target="MBGv9z7zSBHKtkXiV5-l-9" edge="1">
          <mxGeometry relative="1" as="geometry" />
        </mxCell>
        <mxCell id="MBGv9z7zSBHKtkXiV5-l-6" value="reqem = number % 10" style="rounded=0;whiteSpace=wrap;html=1;" parent="1" vertex="1">
          <mxGeometry x="347" y="410" width="155.5" height="60" as="geometry" />
        </mxCell>
        <mxCell id="MBGv9z7zSBHKtkXiV5-l-17" value="" style="edgeStyle=orthogonalEdgeStyle;rounded=0;orthogonalLoop=1;jettySize=auto;html=1;" parent="1" source="MBGv9z7zSBHKtkXiV5-l-9" target="MBGv9z7zSBHKtkXiV5-l-16" edge="1">
          <mxGeometry relative="1" as="geometry" />
        </mxCell>
        <mxCell id="MBGv9z7zSBHKtkXiV5-l-9" value="cem += reqem" style="rounded=0;whiteSpace=wrap;html=1;" parent="1" vertex="1">
          <mxGeometry x="350" y="520" width="150" height="60" as="geometry" />
        </mxCell>
        <mxCell id="MBGv9z7zSBHKtkXiV5-l-15" value="" style="edgeStyle=orthogonalEdgeStyle;rounded=0;orthogonalLoop=1;jettySize=auto;html=1;" parent="1" source="MBGv9z7zSBHKtkXiV5-l-12" target="MBGv9z7zSBHKtkXiV5-l-14" edge="1">
          <mxGeometry relative="1" as="geometry" />
        </mxCell>
        <mxCell id="MBGv9z7zSBHKtkXiV5-l-12" value="cem" style="shape=document;whiteSpace=wrap;html=1;boundedLbl=1;" parent="1" vertex="1">
          <mxGeometry x="110" y="260" width="120" height="80" as="geometry" />
        </mxCell>
        <mxCell id="MBGv9z7zSBHKtkXiV5-l-14" value="END" style="rounded=1;whiteSpace=wrap;html=1;" parent="1" vertex="1">
          <mxGeometry x="110" y="400" width="120" height="60" as="geometry" />
        </mxCell>
        <mxCell id="MBGv9z7zSBHKtkXiV5-l-18" style="edgeStyle=orthogonalEdgeStyle;rounded=0;orthogonalLoop=1;jettySize=auto;html=1;exitX=1;exitY=0.5;exitDx=0;exitDy=0;entryX=1;entryY=0.5;entryDx=0;entryDy=0;" parent="1" source="MBGv9z7zSBHKtkXiV5-l-16" target="MBGv9z7zSBHKtkXiV5-l-4" edge="1">
          <mxGeometry relative="1" as="geometry">
            <Array as="points">
              <mxPoint x="560" y="680" />
              <mxPoint x="560" y="300" />
            </Array>
          </mxGeometry>
        </mxCell>
        <mxCell id="MBGv9z7zSBHKtkXiV5-l-16" value="number /= 10" style="rounded=0;whiteSpace=wrap;html=1;" parent="1" vertex="1">
          <mxGeometry x="350.5" y="650" width="150" height="60" as="geometry" />
        </mxCell>
      </root>
    </mxGraphModel>
  </diagram>
</mxfile>
